<svg width="16" height="17" viewBox="0 0 16 17" fill="none" xmlns="http://www.w3.org/2000/svg">
<g id="SVG">
<path id="Vector" fill-rule="evenodd" clip-rule="evenodd" d="M13.3656 4.98618C13.5156 5.1362 13.5998 5.33965 13.5998 5.55178C13.5998 5.76391 13.5156 5.96736 13.3656 6.11738L6.96561 12.5174C6.81558 12.6674 6.61214 12.7516 6.40001 12.7516C6.18787 12.7516 5.98443 12.6674 5.83441 12.5174L2.63441 9.31738C2.48868 9.1665 2.40804 8.96442 2.40987 8.75466C2.41169 8.5449 2.49582 8.34425 2.64415 8.19593C2.79248 8.0476 2.99313 7.96347 3.20288 7.96164C3.41264 7.95982 3.61472 8.04046 3.76561 8.18618L6.40001 10.8206L12.2344 4.98618C12.3844 4.83621 12.5879 4.75195 12.8 4.75195C13.0121 4.75195 13.2156 4.83621 13.3656 4.98618Z" fill="#2D67F6"/>
</g>
</svg>
